HIERARCHY
ROOT root
{
	OFFSET 0.000000 0.000000 0.000000
	CHANNELS 6 Xposition Yposition Zposition Zrotation Yrotation Xrotation
	JOINT lhip
	{
		OFFSET 0.058581 -0.082280 -0.017664
		CHANNELS 3 Zrotation Yrotation Xrotation
		JOINT lknee
		{
			OFFSET 0.043451 -0.386469 0.008037
			CHANNELS 3 Zrotation Yrotation Xrotation
			JOINT lankle
			{
				OFFSET -0.014790 -0.426874 -0.037428
				CHANNELS 3 Zrotation Yrotation Xrotation
				JOINT ltoe
				{
					OFFSET 0.041054 -0.060286 0.122042
					CHANNELS 3 Zrotation Yrotation Xrotation
					End Site
					{
						OFFSET 0.000000 0.000000 0.000000
					}
				}
			}
		}
	}
	JOINT rhip
	{
		OFFSET -0.060310 -0.090513 -0.013543
		CHANNELS 3 Zrotation Yrotation Xrotation
		JOINT rknee
		{
			OFFSET -0.043257 -0.383688 -0.004843
			CHANNELS 3 Zrotation Yrotation Xrotation
			JOINT rankle
			{
				OFFSET 0.019056 -0.420046 -0.034562
				CHANNELS 3 Zrotation Yrotation Xrotation
				JOINT rtoe
				{
					OFFSET -0.034840 -0.062106 0.130323
					CHANNELS 3 Zrotation Yrotation Xrotation
					End Site
					{
						OFFSET 0.000000 0.000000 0.000000
					}
				}
			}
		}
	}
	JOINT lowerback
	{
		OFFSET 0.004439 0.124404 -0.038385
		CHANNELS 3 Zrotation Yrotation Xrotation
		JOINT upperback
		{
			OFFSET 0.004488 0.137956 0.026820
			CHANNELS 3 Zrotation Yrotation Xrotation
			JOINT chest
			{
				OFFSET -0.002265 0.056032 0.002855
				CHANNELS 3 Zrotation Yrotation Xrotation
				JOINT lowerneck
				{
					OFFSET -0.013390 0.211636 -0.033468
					CHANNELS 3 Zrotation Yrotation Xrotation
					JOINT upperneck
					{
						OFFSET 0.010113 0.088937 0.050410
						CHANNELS 3 Zrotation Yrotation Xrotation
						End Site
						{
							OFFSET 0.000000 0.000000 0.000000
						}
					}
				}
				JOINT lclavicle
				{
					OFFSET 0.071702 0.114000 -0.018898
					CHANNELS 3 Zrotation Yrotation Xrotation
					JOINT lshoulder
					{
						OFFSET 0.122921 0.045205 -0.019046
						CHANNELS 3 Zrotation Yrotation Xrotation
						JOINT lelbow
						{
							OFFSET 0.255332 -0.015649 -0.022946
							CHANNELS 3 Zrotation Yrotation Xrotation
							JOINT lwrist
							{
								OFFSET 0.265709 0.012698 -0.007375
								CHANNELS 3 Zrotation Yrotation Xrotation
								End Site
								{
									OFFSET 0.000000 0.000000 0.000000
								}
							}
						}
					}
				}
				JOINT rclavicle
				{
					OFFSET -0.082954 0.112472 -0.023707
					CHANNELS 3 Zrotation Yrotation Xrotation
					JOINT rshoulder
					{
						OFFSET -0.113228 0.046853 -0.008472
						CHANNELS 3 Zrotation Yrotation Xrotation
						JOINT relbow
						{
							OFFSET -0.260127 -0.014369 -0.031269
							CHANNELS 3 Zrotation Yrotation Xrotation
							JOINT rwrist
							{
								OFFSET -0.269108 0.006794 -0.006027
								CHANNELS 3 Zrotation Yrotation Xrotation
								End Site
								{
									OFFSET 0.000000 0.000000 0.000000
								}
							}
						}
					}
				}
			}
		}
	}
}
MOTION
Frames: 13
Frame Time: 0.033333
-1.137836 0.675658 0.761291 65.910217 -5.994324 108.403551 27.967694 16.569233 -28.046216 -12.686721 -11.756924 39.241134 -6.318471 5.101398 -30.110078 0.000000 -0.000000 0.000000 -21.834691 -6.771845 -75.118811 15.125079 3.153500 70.377107 8.041835 4.692572 -24.101369 0.000000 -0.000000 0.000000 3.215959 -6.586063 42.495096 -0.529478 1.945947 5.548655 1.321137 -9.730764 0.987931 1.120336 -1.509070 4.631831 -1.170785 7.778429 -14.822943 -7.170224 -35.536414 3.496087 -11.605819 -6.446048 2.137782 -9.889831 -18.313367 17.619480 -5.383972 -10.881248 15.810058 -21.908411 29.529635 -14.285722 -19.104291 30.409819 -25.901572 -16.112237 72.420745 -22.938494 -6.744820 15.784890 -33.001891 
-1.139533 0.683153 0.752921 66.306424 -5.066881 108.047342 28.677310 17.097141 -29.801782 -13.084406 -11.848998 42.411015 -6.228231 4.523169 -31.430756 0.000000 -0.000000 0.000000 -21.753494 -6.323269 -75.468503 14.867815 3.095011 71.073620 8.559777 4.648218 -24.340886 0.000000 -0.000000 0.000000 2.457300 -4.987953 43.862191 0.694859 1.656135 4.472269 2.286475 -10.726453 1.526563 2.062338 -0.048648 2.863310 -1.215121 7.787517 -13.640413 -6.347344 -37.893957 3.209918 -9.802487 -7.712070 -2.375381 -3.611377 -13.582817 7.770058 2.825442 -15.076637 22.041905 -21.762019 27.875720 -15.418838 -15.737012 29.793051 -21.951298 -43.390902 82.217959 -46.768107 -6.872519 17.784366 -35.999157 
-1.141509 0.691735 0.744046 66.988212 -4.183554 108.083731 29.121763 17.449322 -32.267521 -13.522387 -12.028674 45.523921 -5.869990 4.665275 -32.418174 0.000000 -0.000000 0.000000 -21.741536 -6.355743 -76.035083 15.304366 3.159442 71.677487 8.739082 3.690868 -24.515527 0.000000 -0.000000 0.000000 1.983279 -3.759837 44.877074 1.395902 1.498374 3.385289 2.918411 -11.335890 2.312310 2.187063 -0.249202 1.569100 -0.198435 8.246120 -13.218207 -6.038809 -39.468269 3.192993 -5.810501 -8.988833 -7.853015 1.723307 -13.242342 -6.354578 13.722470 -18.515854 19.283712 -20.712734 26.287868 -15.227083 -12.364651 27.255858 -17.269581 -129.470966 82.136689 -130.279377 -6.729586 19.380354 -37.973920 
-1.143922 0.701098 0.736376 67.654426 -3.334363 108.435674 29.379775 17.471326 -34.912905 -14.324212 -12.773626 48.617583 -5.327476 5.282531 -33.260825 0.000000 -0.000000 0.000000 -21.292190 -6.507799 -76.968790 15.457470 3.802876 72.228367 9.048366 3.034362 -24.523721 0.000000 -0.000000 0.000000 1.449546 -2.584182 46.116683 1.685021 1.551238 1.488014 3.580734 -11.701557 3.385800 1.298979 -0.935508 0.892760 1.834367 8.904420 -12.936418 -5.423066 -40.343288 2.224595 -1.936535 -10.761425 -13.547107 4.720636 -17.420529 -22.615264 25.649342 -18.959917 10.317192 -18.981066 24.541031 -15.074567 -8.447409 24.592962 -12.290955 -158.382878 75.250142 -158.535975 -6.909281 20.404397 -37.527557 
-1.145766 0.710494 0.730552 68.284094 -2.241752 108.986062 30.319081 17.309183 -37.191559 -14.392059 -12.141630 50.648797 -4.900241 5.186926 -34.031676 0.000000 -0.000000 0.000000 -21.275578 -6.245147 -77.612469 14.956785 3.976591 72.105078 10.310377 3.398170 -24.187992 0.000000 -0.000000 0.000000 0.982327 -1.557118 47.230104 1.903947 1.902384 -0.101806 4.121747 -11.341726 4.340766 -0.421167 -1.165245 1.029961 4.302758 8.449706 -13.813254 -3.064417 -40.283606 1.054299 0.055288 -14.372147 -16.805851 8.146835 -24.748992 -36.269087 29.091291 -13.669583 -4.466294 -17.055783 22.207919 -13.717999 -3.989427 20.930970 -7.291331 -165.949109 69.071853 -165.030138 -5.371029 21.476216 -37.441182 
-1.147455 0.720327 0.726575 69.106506 -1.251098 109.992649 30.968252 17.491608 -39.787466 -14.731626 -11.983491 52.299719 -4.500378 4.992564 -34.330513 0.000000 -0.000000 0.000000 -21.075043 -6.598873 -78.209070 14.383098 4.220146 71.411707 10.315234 2.806454 -23.695847 0.000000 -0.000000 0.000000 0.470474 -0.363670 48.269414 2.526746 2.129466 -2.093952 4.906572 -10.964899 5.630847 -2.054213 -0.831744 0.966595 6.126318 6.527867 -15.126527 -0.174828 -39.437474 -0.529031 1.693218 -19.017968 -18.865504 12.244115 -31.294305 -43.730494 28.157005 -8.997586 -15.670125 -14.756142 19.316007 -11.894078 -0.327315 17.514287 -3.312513 -172.078534 65.578337 -169.601771 -4.466099 20.859844 -39.984761 
-1.148611 0.730439 0.724349 70.128990 -0.395422 110.912960 31.244515 17.598765 -42.380451 -14.674744 -11.552415 53.912332 -4.467425 4.915705 -34.502747 0.000000 -0.000000 0.000000 -21.157915 -7.005421 -78.402470 13.847720 4.292274 70.719411 10.753014 2.774051 -23.263220 0.000000 -0.000000 0.000000 -0.034754 0.681500 49.490375 3.121704 2.479619 -4.060423 5.569744 -10.511046 6.949320 -3.458026 -0.419229 1.538407 7.520885 5.197006 -16.671866 3.131230 -38.308454 -1.902469 2.578598 -23.735612 -19.325415 17.330420 -37.624627 -46.134356 26.599240 -7.362311 -23.678270 -12.732767 16.607782 -10.324015 3.445083 13.862768 -0.060880 -175.778742 65.325330 -171.501828 -0.643327 22.685439 -40.750656 
-1.149268 0.739572 0.724047 71.294693 0.211430 112.196239 31.099712 17.560706 -45.124148 -14.617708 -11.366121 55.175759 -4.463535 4.543504 -34.675757 0.000000 -0.000000 0.000000 -21.553488 -7.336663 -78.523373 12.776068 4.277605 69.679054 11.480889 2.901883 -23.172846 0.000000 -0.000000 0.000000 -0.411303 1.344629 50.496668 3.434539 2.626406 -6.303579 6.099295 -9.887564 8.006210 -4.667759 0.113880 3.135155 9.414899 4.265505 -18.423603 5.027936 -37.752119 -1.716130 4.255462 -26.681108 -19.552357 23.988165 -44.239931 -47.997751 26.126170 -9.778629 -24.668765 -10.921272 14.941452 -8.422015 5.492238 9.681088 1.293588 178.521273 67.862526 -176.184554 3.653962 24.210095 -41.345352 
-1.149504 0.746524 0.725404 72.218322 0.984559 113.836408 31.361675 17.860605 -47.438537 -14.852094 -11.049996 55.521399 -4.400924 4.345478 -34.590477 0.000000 -0.000000 0.000000 -21.307724 -7.537602 -79.194830 12.274645 4.517957 68.686365 12.092776 2.197624 -22.720156 0.000000 -0.000000 0.000000 -0.675584 1.638070 50.784010 3.341197 3.266495 -7.882197 6.388205 -9.876133 9.401848 -5.024539 0.135243 2.345790 9.256751 4.067502 -19.142251 5.387763 -36.395436 -2.021844 6.330553 -28.501804 -18.710565 31.519838 -52.187993 -47.434700 23.181622 -12.381517 -24.039704 -9.331433 13.775756 -7.336608 6.103618 7.081020 2.663629 171.808905 72.795219 177.405847 6.206245 24.902030 -40.888380 
-1.149103 0.752253 0.727335 73.065955 1.308450 115.644245 31.143464 18.047908 -49.854046 -14.740500 -10.427604 55.763138 -4.379579 4.365430 -34.443889 0.000000 -0.000000 0.000000 -21.377510 -7.969415 -79.887584 11.781282 4.785001 67.619635 12.613240 1.650861 -22.359820 0.000000 -0.000000 0.000000 -0.989598 1.818930 50.918697 2.912225 3.610409 -9.755035 6.531436 -9.890238 10.383559 -5.032653 -0.379292 2.861979 9.720681 4.335636 -19.623584 4.630720 -35.277363 -1.325694 8.221738 -29.493064 -17.858692 40.624572 -60.066652 -48.750076 23.786486 -15.101117 -21.099966 -8.315570 13.531793 -6.636888 5.708510 5.645367 3.142353 149.028996 78.864087 154.566445 6.680490 24.422123 -40.152366 
-1.148286 0.756556 0.730926 73.886211 1.568400 117.096094 30.921625 18.078845 -51.662067 -14.726399 -10.228353 55.708025 -4.697021 4.338375 -34.375999 0.000000 -0.000000 0.000000 -21.444806 -8.075014 -80.194749 10.711606 4.929966 66.535797 13.299572 1.397305 -22.070771 0.000000 -0.000000 0.000000 -1.017736 1.598697 51.666341 1.939352 3.937551 -11.779458 6.590590 -9.684805 10.896331 -5.100456 -1.224482 4.060913 10.564873 4.803492 -20.165129 3.548652 -34.599446 -0.101776 8.727579 -29.603289 -16.652903 53.807474 -66.727096 -54.227639 23.658453 -16.531362 -18.424576 -7.945538 14.149315 -5.438072 4.786506 5.069180 2.268419 92.603419 79.842579 97.639054 4.066923 22.755108 -38.742204 
-1.147106 0.759311 0.734393 74.869764 1.571776 118.816969 30.574071 17.992453 -53.615077 -14.841884 -10.172264 55.431439 -4.860104 4.520845 -34.119544 0.000000 -0.000000 0.000000 -21.658178 -8.607887 -80.681036 10.246275 4.971911 65.553349 13.633696 0.716809 -22.006731 0.000000 -0.000000 0.000000 -0.956292 1.034722 51.594442 0.980599 4.169286 -12.894367 6.534709 -9.315666 11.375651 -5.519823 -2.322347 4.414816 11.329509 5.720911 -20.970228 2.061705 -33.666955 0.333727 8.235370 -29.489867 -14.498566 71.430959 -71.829654 -66.051814 24.342387 -17.314461 -17.228040 -7.402377 15.406740 -4.578586 2.613475 5.084197 1.012827 57.789173 73.037708 61.812048 3.063998 21.754880 -36.746487 
-1.144810 0.760640 0.738669 75.869944 1.666508 120.278223 30.505824 17.806413 -54.905379 -14.701570 -10.150521 54.625696 -4.867079 4.367847 -33.680276 0.000000 -0.000000 0.000000 -21.576143 -8.936779 -80.823250 9.348600 4.950345 64.627094 13.641594 0.467960 -21.936411 0.000000 -0.000000 0.000000 -0.694502 0.144717 52.155477 -0.100936 4.367083 -14.114353 6.433214 -8.387797 11.412256 -5.983377 -3.943474 4.812256 12.204859 6.422964 -21.363399 0.382825 -32.781860 1.087407 6.158232 -28.938445 -11.366207 93.004053 -74.136334 -83.801330 24.073794 -17.589519 -18.444413 -7.342446 17.238466 -3.592256 0.815743 5.209365 -0.815763 42.894454 64.028599 45.753424 4.856022 20.737026 -32.132388 
